<?xml version="1.0" encoding="utf-8"?>
<!-- Generator: Adobe Illustrator 27.9.5, SVG Export Plug-In . SVG Version: 9.03 Build 54986)  -->
<svg version="1.1" id="Capa_1" xmlns="http://www.w3.org/2000/svg" xmlns:xlink="http://www.w3.org/1999/xlink" x="0px" y="0px"
	 viewBox="0 0 1920 1080" style="enable-background:new 0 0 1920 1080;" xml:space="preserve">
<style type="text/css">
	.st0{fill:#F59F42;}
</style>
<g>
	<g>
		<g>
			<g>
				<g>
					<path class="st0" d="M695.7,593.4c-16.7,0-30.7-5.1-41.9-15.1c-10.1-8.9-15.7-19.9-16.7-32.9c-0.2-2.6,2-4.8,4.6-4.8h29.4
						c2.1,0,4.1,1.4,4.4,3.5c0.7,4,2.6,7.4,5.8,10.4c4,3.8,8.9,5.7,14.8,5.7c5.6,0,10.4-1.5,14.1-4.6c3.8-3.1,5.6-6.8,5.6-11.3
						c0-9.2-9.8-16.3-29.4-21.4c-13.8-3.5-25.1-9.4-33.9-17.8c-8.8-8.2-13.3-19.6-13.3-34.3c0-14.1,5.3-25.9,16-35.3
						c10.7-9.4,24-14.1,39.9-14.1c16.2,0,29.8,4.8,40.5,14.5c9.5,8.5,14.8,18.9,15.9,31.3c0.2,2.6-2,4.9-4.6,4.9H718
						c-2.2,0-4.4-1.4-4.8-3.6c-0.7-3.4-2.3-6.3-4.8-8.8c-3.4-3.3-7.9-4.9-13.2-4.9c-4.9,0-9.1,1.4-12.5,4.2
						c-3.4,2.8-5.1,6.4-5.1,10.5c0,9.1,9.1,15.9,27.2,20.7c14.1,3.9,24,8.1,34,16c9.9,7.9,15.4,20.1,15.4,35.8
						c0,14.7-5.5,27.1-16.7,36.8C726.4,588.4,712.4,593.4,695.7,593.4z"/>
					<path class="st0" d="M815.9,555.3h50.6c2.5,0,4.6,2.1,4.6,4.6v26c0,2.5-2.1,4.6-4.6,4.6h-88c-2.5,0-4.6-2.1-4.6-4.6v-157
						c0-2.5,2.1-4.6,4.6-4.6h86.7c2.5,0,4.6,2.1,4.6,4.6v26c0,2.5-2.1,4.6-4.6,4.6h-49.3c-2.5,0-4.6,2.1-4.6,4.6v20.7
						c0,2.5,2.1,4.6,4.6,4.6h41.4c2.5,0,4.6,2.1,4.6,4.6v26c0,2.5-2.1,4.6-4.6,4.6h-41.4c-2.5,0-4.6,2.1-4.6,4.6v21.7
						C811.3,553.2,813.3,555.3,815.9,555.3z"/>
					<path class="st0" d="M1002.2,518.6c5.1,8.1,7.5,17.1,7.5,26.8c0,13.1-4.5,23.8-13.4,32.2c-8.9,8.6-20.1,12.8-33.6,12.8h-66.7
						c-2.5,0-4.6-2.1-4.6-4.6v-157c0-2.5,2.1-4.6,4.6-4.6h60.7c12.7,0,23.3,4,31.9,12c8.5,8.1,12.7,18.2,12.7,30.6
						c0,7.4-1.6,14.2-5.1,20.6c-2.2,4.2-4.9,7.7-7.9,10.6c-2.1,2-1.8,5.4,0.7,7C994,508.1,998.4,512.7,1002.2,518.6z M927.5,462.6
						v22.1c0,2.5,2.1,4.6,4.6,4.6h15.4c4.4,0,8-1.5,10.9-4.6c2.9-3.1,4.5-6.7,4.5-11.1c0-4.5-1.5-8.2-4.5-11.2
						c-2.9-2.9-6.6-4.5-10.9-4.5h-15.4C929.5,458,927.5,460,927.5,462.6z M953.6,556.7c5.2,0,9.4-1.6,12.8-5.1
						c3.3-3.4,4.9-7.6,4.9-12.8c0-5.1-1.8-9.4-5.2-12.8c-3.4-3.4-7.6-5.2-12.6-5.2h-21.5c-2.5,0-4.6,2.1-4.6,4.6v26.7
						c0,2.5,2.1,4.6,4.6,4.6H953.6z"/>
					<path class="st0" d="M1137.6,587.4l-8.2-23.1c-0.6-1.8-2.4-3-4.3-3h-61c-1.9,0-3.7,1.2-4.3,3l-8.2,23.1c-0.6,1.8-2.4,3-4.3,3
						h-30.1c-3.2,0-5.4-3.2-4.3-6.2l59-157c0.7-1.8,2.4-3,4.3-3h37.8c1.9,0,3.6,1.2,4.3,3l59.1,157c1.1,3-1.1,6.2-4.3,6.2h-31.1
						C1140,590.4,1138.3,589.2,1137.6,587.4z M1079.4,526.8h30.3c3.2,0,5.4-3.1,4.3-6.1l-15.2-43c-1.4-4.1-7.2-4.1-8.6,0l-15.2,43
						C1074.1,523.7,1076.3,526.8,1079.4,526.8z"/>
					<path class="st0" d="M1239.5,593.4c-16.7,0-30.7-5.1-41.9-15.1c-11.3-10-16.9-22.6-16.9-37.8h38.3c0,5.5,2,10.1,6.1,13.9
						c4,3.8,8.9,5.7,14.8,5.7c5.7,0,10.3-1.5,14.1-4.6c3.8-3.1,5.7-6.8,5.7-11.3c0-9.2-9.8-16.3-29.4-21.4
						c-13.8-3.5-25.1-9.4-33.9-17.8c-8.8-8.2-13.3-19.6-13.3-34.3c0-14.1,5.3-25.9,16-35.3c10.7-9.4,24-14.1,39.9-14.1
						c16.2,0,29.8,4.8,40.5,14.5c10.7,9.6,16.1,21.6,16.1,36.1h-38.2c0-4.9-1.8-9.1-5.2-12.4c-3.4-3.3-7.9-4.9-13.2-4.9
						c-4.9,0-9.1,1.4-12.5,4.2c-3.4,2.8-5.1,6.4-5.1,10.5c0,9.1,9.1,15.9,27.2,20.7c14.1,3.9,24,8.1,34,16
						c9.9,7.9,15.4,20.1,15.4,35.8c0,14.7-5.5,27.1-16.7,36.8C1270.2,588.4,1256.2,593.4,1239.5,593.4z"/>
					<path class="st0" d="M1423.9,428.8v26c0,2.5-2.1,4.6-4.6,4.6h-32c-2.5,0-4.6,2.1-4.6,4.6v121.9c0,2.5-2.1,4.6-4.6,4.6h-28.2
						c-2.5,0-4.6-2.1-4.6-4.6V464c0-2.5-2.1-4.6-4.6-4.6h-32c-2.5,0-4.6-2.1-4.6-4.6v-26c0-2.5,2.1-4.6,4.6-4.6h110.6
						C1421.8,424.2,1423.9,426.3,1423.9,428.8z"/>
					<path class="st0" d="M1442.1,585.8v-157c0-2.5,2.1-4.6,4.6-4.6h28.2c2.5,0,4.6,2.1,4.6,4.6v157c0,2.5-2.1,4.6-4.6,4.6h-28.2
						C1444.1,590.4,1442.1,588.4,1442.1,585.8z"/>
					<path class="st0" d="M1620.6,587.4l-8.2-23.1c-0.6-1.8-2.4-3-4.3-3h-61c-1.9,0-3.7,1.2-4.3,3l-8.2,23.1c-0.6,1.8-2.4,3-4.3,3
						h-30.1c-3.2,0-5.4-3.2-4.3-6.2l59-157c0.7-1.8,2.4-3,4.3-3h37.8c1.9,0,3.6,1.2,4.3,3l59.1,157c1.1,3-1.1,6.2-4.3,6.2h-31.1
						C1623,590.4,1621.3,589.2,1620.6,587.4z M1562.4,526.8h30.3c3.2,0,5.4-3.1,4.3-6.1l-15.2-43c-1.4-4.1-7.2-4.1-8.6,0l-15.2,43
						C1557,523.7,1559.3,526.8,1562.4,526.8z M1610.4,378.5l-10,26.5c-0.7,1.8-2.4,3-4.3,3h-27.5c-3.2,0-5.4-3.2-4.3-6.2l10-26.5
						c0.7-1.8,2.4-3,4.3-3h27.5C1609.3,372.3,1611.5,375.5,1610.4,378.5z"/>
					<path class="st0" d="M1788,424.2h28.2c2.5,0,4.6,2.1,4.6,4.6v157c0,2.5-2.1,4.6-4.6,4.6h-30.9c-1.5,0-2.9-0.8-3.8-2l-59.1-87.2
						c-2.5-3.7-8.4-1.9-8.4,2.6v82.1c0,2.5-2.1,4.6-4.6,4.6h-28.2c-2.5,0-4.6-2.1-4.6-4.6v-157c0-2.5,2.1-4.6,4.6-4.6h30.6
						c1.5,0,2.9,0.8,3.8,2l59.3,87.3c2.5,3.7,8.4,1.9,8.4-2.6v-82.1C1783.4,426.3,1785.4,424.2,1788,424.2z"/>
					<path class="st0" d="M726.7,643.3h16.5v96.4h-12.7v-75.3l-33.8,75.3h-9.3l-33.7-75.3v75.3h-12.8v-96.4h16.9l34.5,77.2
						L726.7,643.3z"/>
					<path class="st0" d="M835.5,739.7l-9.3-23.3h-47.2l-9.3,23.3h-13.7l39.2-96.4h15.3l39.2,96.4H835.5z M783.7,704.5h37.7
						l-18.9-47.3L783.7,704.5z"/>
					<path class="st0" d="M909.5,739.7l-32.7-38.3h-1.8v38.3h-12.8v-96.4h31.3c8.5,0,15.7,2.8,21.4,8.4s8.6,12.5,8.6,20.9
						c0,8.2-2.9,15-8.5,20.5c-5.7,5.5-12.8,8.3-21.2,8.3h-1.2l33,38.3H909.5z M874.9,655.3v34.9h18.2c5,0,9.1-1.6,12.3-5
						c3.2-3.3,4.8-7.4,4.8-12.5c0-5-1.6-9.2-4.8-12.6c-3.3-3.3-7.4-4.9-12.3-4.9H874.9z"/>
					<path class="st0" d="M997.1,643.3v12h-27.7v84.4h-12.8v-84.4h-27.7v-12H997.1z"/>
					<path class="st0" d="M1009.9,634l14.5-18.1h15.4l-17.1,18.1H1009.9z M1010.7,739.7v-96.4h12.8v96.4H1010.7z"/>
					<path class="st0" d="M1112.2,643.3h12.8v96.4h-13.2l-54.5-75v75h-12.8v-96.4h13.2l54.5,75.3V643.3z"/>
					<path class="st0" d="M1158.8,727.7h41.2v12h-54v-96.4h53.3v12h-40.5v29.9h35.9v12h-35.9V727.7z"/>
					<path class="st0" d="M1228.7,727.7h56.9v12h-74.4v-9.2l55.9-75.2h-55.3v-12h72.8v9.2L1228.7,727.7z"/>
					<path class="st0" d="M1337.2,733.1c-6-5.5-9-12.4-9-20.6h13c0,5,1.8,9.1,5.4,12.4c3.6,3.3,8,5,13.2,5c5.1,0,9.4-1.5,12.8-4.4
						c3.3-2.9,5-6.5,5-11c0-8.7-7-14.7-21.1-18.1c-17.9-4.4-26.8-13.8-26.8-28.2c0-7.6,2.9-13.8,8.5-19c5.7-5,12.7-7.6,21.2-7.6
						c8.5,0,15.5,2.7,21.2,7.9c5.7,5.3,8.5,11.9,8.5,19.8h-13c0-4.6-1.6-8.5-4.9-11.6c-3.2-3.1-7.2-4.6-12.1-4.6
						c-4.6,0-8.5,1.4-11.7,4.2s-4.8,6.3-4.8,10.4c0,8.3,6.5,14.1,19.7,17.5c18.8,4.6,28.2,14.2,28.2,28.7c0,7.9-3,14.5-8.9,19.8
						c-5.9,5.3-13.4,7.9-22.4,7.9C1350.6,741.4,1343.2,738.6,1337.2,733.1z"/>
					<path class="st0" d="M1475.2,739.7l-9.3-23.3h-47.2l-9.3,23.3h-13.7l39.2-96.4h15.3l39.2,96.4H1475.2z M1423.4,704.5h37.7
						l-18.9-47.3L1423.4,704.5z"/>
					<path class="st0" d="M1569.6,643.3h12.8v96.4h-13.2l-54.5-75v75h-12.8v-96.4h13.2l54.5,75.3V643.3z"/>
					<path class="st0" d="M1664.3,643.3v12h-27.7v84.4h-12.8v-84.4h-27.7v-12H1664.3z"/>
					<path class="st0" d="M1715.4,741.4c-14.4,0-26.4-4.8-36-14.3c-9.6-9.5-14.5-21.4-14.5-35.6c0-14.1,4.8-26,14.5-35.5
						c9.6-9.5,21.6-14.3,36-14.3c14.3,0,26.3,4.8,35.9,14.3c9.6,9.5,14.5,21.4,14.5,35.5c0,14.2-4.8,26.1-14.5,35.6
						C1741.7,736.6,1729.7,741.4,1715.4,741.4z M1715.4,729.1c10.6,0,19.4-3.6,26.6-10.8c7.1-7.2,10.6-16.1,10.6-26.8
						s-3.5-19.6-10.6-26.8c-7.2-7.2-16-10.7-26.6-10.7c-10.6,0-19.5,3.5-26.6,10.7c-7.2,7.2-10.7,16.1-10.7,26.8s3.5,19.6,10.7,26.8
						C1695.9,725.5,1704.7,729.1,1715.4,729.1z"/>
					<path class="st0" d="M1785.2,733.1c-6-5.5-9-12.4-9-20.6h13c0,5,1.8,9.1,5.4,12.4c3.6,3.3,8,5,13.2,5c5.1,0,9.4-1.5,12.8-4.4
						c3.3-2.9,5-6.5,5-11c0-8.7-7-14.7-21.1-18.1c-17.9-4.4-26.8-13.8-26.8-28.2c0-7.6,2.9-13.8,8.5-19c5.7-5,12.7-7.6,21.2-7.6
						c8.5,0,15.5,2.7,21.2,7.9c5.7,5.3,8.5,11.9,8.5,19.8h-13c0-4.6-1.6-8.5-4.9-11.6c-3.2-3.1-7.2-4.6-12.1-4.6
						c-4.6,0-8.5,1.4-11.7,4.2c-3.2,2.8-4.8,6.3-4.8,10.4c0,8.3,6.5,14.1,19.7,17.5c18.8,4.6,28.2,14.2,28.2,28.7
						c0,7.9-3,14.5-8.9,19.8c-5.9,5.3-13.4,7.9-22.4,7.9C1798.6,741.4,1791.2,738.6,1785.2,733.1z"/>
				</g>
			</g>
		</g>
	</g>
	<path class="st0" d="M548.8,475.9c-0.1-2-0.2-3.9-0.3-5.9c-7.2-128.6-118.6-229.3-251.2-219.1C184,259.6,92.1,351.5,83.4,464.8
		C73.2,597.6,174.3,709.1,303.2,716c3.6,0.2,7.2,0.3,10.7,0.3h86.4c0.8,0,1.6,0,2.4,0.1c0.8,0.1,1.6,0.2,2.4,0.4
		c0.7,0.1,1.4,0.3,2.1,0.5c0.4,0.1,0.8,0.2,1.1,0.4c1.1,0.4,2.1,0.8,3,1.3c1.9,1,3.7,2.3,5.2,3.9c0.6,0.6,1.3,1.2,1.8,1.9
		c0.5,0.5,1,1.2,1.3,1.8c0.2,0.3,0.4,0.6,0.6,1c0.3,0.4,0.5,0.9,0.8,1.3c0.6,1.2,1.2,2.5,1.6,3.9c0.2,0.7,0.4,1.4,0.6,2.2
		c0.3,1.5,0.5,3.1,0.5,4.7c0,0.6,0,1.3-0.1,1.9c0,0.7-0.1,1.3-0.2,1.9c0,0.4-0.1,0.9-0.3,1.3c0,0.4-0.1,0.8-0.3,1.2
		c-0.1,0.4-0.2,0.8-0.4,1.2c-0.2,0.6-0.4,1.2-0.7,1.8c-0.7,1.8-1.7,3.5-3,5c-0.4,0.5-0.8,1.1-1.3,1.5c-0.4,0.5-0.9,1-1.4,1.4
		c-0.5,0.5-1,0.9-1.6,1.3c-0.5,0.4-1,0.8-1.6,1.1c-0.5,0.3-1,0.6-1.5,0.9c-3.2,1.7-6.9,2.6-10.8,2.6H184.4
		c-9.7,0-17.6,7.9-17.6,17.6v32.7c0,9.7,7.9,17.6,17.6,17.6l214.5,0c11.3,0,22.5-1.6,33-5.6c37.6-14.5,59.6-48.9,59.6-85.7
		c0-22.5-8.2-44.2-23.3-60.8c-3.3-3.8-7-7.3-11-10.5c-2-1.7-4.2-3.3-6.4-4.8c-7.8-5.1-15.9-9-24.6-11.5V477.1
		c0-4.4-1.7-8.6-4.8-11.7l-31.1-31.1c-6.4-6.4-16.9-6.4-23.3,0c0,0-52.6,52.6-52.6,52.6l-52.7-52.6c-6.4-6.4-16.9-6.4-23.3,0
		l-31.2,31.2c-3.1,3.1-4.8,7.3-4.8,11.7c0,0,0,126.7,0,126.7c-35.4-33.2-56.1-81.9-51.5-135.2c6.7-79.1,70.7-143.3,149.7-150.4
		c78.5-7,147,40.7,171.5,109.4c0.7,2.1,1.4,4.1,2.1,6.3c4.9,15.6,7.5,32.1,7.5,49.3c0,19.2-3.3,37.7-9.3,54.9
		c-1.9,5.5,0.9,11.6,6.3,13.9c0,0,38,16.3,38.1,16.3c19.6,8.4,21.3-13.2,24.6-26.6C546.3,520.2,549.6,498.2,548.8,475.9z M264,532.4
		l38.6,38.8c6.5,6.5,16.9,6.5,23.4,0l38.5-38.8c0,0,0,0,0,0v116c0,0,0,0,0,0h-50.2c-15.1,0-29.9-2-44.1-5.9
		c-2.1-0.5-4.2-1.2-6.1-1.8c0,0,0,0,0,0L264,532.4C264,532.4,264,532.4,264,532.4z"/>
</g>
</svg>
